<svg width="403" height="58" viewBox="0 0 403 58" fill="none" xmlns="http://www.w3.org/2000/svg">
<path d="M263.729 45.4902C261.265 45.4902 259.101 44.935 257.231 43.8245C255.368 42.714 253.918 41.1593 252.881 39.1525C251.852 37.1457 251.333 34.8296 251.333 32.1882V31.5536C251.333 28.8805 251.852 26.5406 252.881 24.5338C253.91 22.527 255.345 20.9723 257.178 19.8618C259.011 18.7514 261.107 18.1961 263.474 18.1961C265.84 18.1961 267.801 18.7117 269.566 19.7508C271.332 20.7899 272.714 22.2732 273.713 24.2086C274.712 26.144 275.216 28.4126 275.216 31.0143V32.91H255.277C255.375 35.6862 256.224 37.8596 257.824 39.4222C259.424 40.9848 261.423 41.7701 263.819 41.7701C265.915 41.7701 267.53 41.2625 268.665 40.2392C269.799 39.216 270.663 38.0024 271.264 36.5984L274.66 38.3355C274.156 39.4222 273.465 40.5168 272.586 41.6035C271.7 42.6902 270.558 43.6103 269.138 44.348C267.718 45.0857 265.915 45.4585 263.714 45.4585L263.729 45.4902ZM255.337 29.5072H271.227C271.091 27.1196 270.317 25.2556 268.905 23.9151C267.485 22.5825 265.682 21.9083 263.481 21.9083C261.28 21.9083 259.417 22.5746 257.982 23.9151C256.547 25.2556 255.668 27.1196 255.33 29.5072H255.337Z" fill="#334155"/>
<path d="M310.471 53.4435V18.8973H314.307V22.9611H315.004C315.633 21.7246 316.652 20.6239 318.069 19.6513C319.477 18.6787 321.448 18.1961 323.973 18.1961C326.064 18.1961 327.982 18.7088 329.728 19.7266C331.474 20.7445 332.868 22.1921 333.917 24.0619C334.966 25.9317 335.49 28.1936 335.49 30.8324V31.4808C335.49 34.0895 334.973 36.3438 333.947 38.2513C332.92 40.1588 331.526 41.6139 329.788 42.6167C328.05 43.6195 326.109 44.1246 323.981 44.1246C322.287 44.1246 320.849 43.8984 319.672 43.4461C318.488 42.9937 317.537 42.4207 316.802 41.7195C316.068 41.0183 315.506 40.3021 315.109 39.5632H314.412V53.451H310.478L310.471 53.4435ZM322.932 40.6036C325.457 40.6036 327.51 39.7969 329.084 38.1684C330.657 36.5474 331.451 34.2855 331.451 31.3752V30.9229C331.451 28.0126 330.665 25.7507 329.084 24.1297C327.503 22.5087 325.457 21.6945 322.932 21.6945C320.406 21.6945 318.391 22.5087 316.78 24.1297C315.169 25.7507 314.36 28.0126 314.36 30.9229V31.3752C314.36 34.2855 315.169 36.5474 316.78 38.1684C318.391 39.7894 320.444 40.6036 322.932 40.6036Z" fill="#334155"/>
<path d="M351.298 45.4902C348.834 45.4902 346.67 44.935 344.799 43.8245C342.936 42.714 341.486 41.1593 340.45 39.1525C339.42 37.1457 338.902 34.8296 338.902 32.1882V31.5536C338.902 28.8805 339.42 26.5406 340.45 24.5338C341.479 22.527 342.914 20.9723 344.747 19.8618C346.58 18.7514 348.676 18.1961 351.042 18.1961C353.409 18.1961 355.37 18.7117 357.135 19.7508C358.9 20.7899 360.283 22.2732 361.282 24.2086C362.281 26.144 362.784 28.4126 362.784 31.0143V32.91H342.846C342.944 35.6862 343.793 37.8596 345.393 39.4222C346.993 40.9848 348.991 41.7701 351.388 41.7701C353.484 41.7701 355.099 41.2625 356.234 40.2392C357.368 39.216 358.232 38.0024 358.833 36.5984L362.229 38.3355C361.725 39.4222 361.034 40.5168 360.155 41.6035C359.269 42.6902 358.127 43.6103 356.707 44.348C355.287 45.0857 353.484 45.4585 351.283 45.4585L351.298 45.4902ZM342.906 29.5072H358.795C358.66 27.1196 357.886 25.2556 356.474 23.9151C355.054 22.5825 353.251 21.9083 351.05 21.9083C348.849 21.9083 346.986 22.5746 345.551 23.9151C344.116 25.2556 343.237 27.1196 342.899 29.5072H342.906Z" fill="#334155"/>
<path d="M367.333 44.353V19.4406H371.375V22.4972H372.109C372.566 21.4094 373.261 20.6127 374.208 20.0994C375.155 19.5862 376.395 19.3334 377.934 19.3334H380.98V23.0028H377.673C375.818 23.0028 374.319 23.5008 373.182 24.5043C372.046 25.5078 371.477 27.0629 371.477 29.1696V44.353H367.333Z" fill="#334155"/>
<path d="M394.981 44.3456C393.581 44.3456 392.504 43.9774 391.75 43.2409C390.997 42.5043 390.621 41.4935 390.621 40.2154V24.1783H383.255V20.864H390.621V12.5097H394.575V20.864H402.588V24.1783H394.575V39.645C394.575 40.6053 395.057 41.0891 396.028 41.0891H401.489V44.3528H394.974L394.981 44.3456Z" fill="#334155"/>
<path fill-rule="evenodd" clip-rule="evenodd" d="M266.118 58.0001C289.053 35.4781 290.865 34.7648 302.477 43.6987C293.932 31.5515 294.614 29.6638 316.157 5.6864C293.222 28.2085 291.41 28.9217 279.797 19.9878C288.343 32.1351 287.661 34.0227 266.118 58.0001Z" fill="#334155"/>
<path d="M4.31559 29.0452V25.5171L25.232 15.3739V20.1778L9.79671 27.2182L9.93846 26.9347V27.6119L9.79671 27.3442L25.232 34.3688V39.1884L4.31559 29.0452ZM60.4495 10.7433V43H55.9764L39.5803 19.343H39.281V43H34.4142V10.7433H38.9188L55.3306 34.4318H55.6299V10.7433H60.4495ZM94.9148 10.7433V43H90.4417L74.0456 19.343H73.7464V43H68.8795V10.7433H73.3841L89.796 34.4318H90.0952V10.7433H94.9148ZM113.157 43.4883C110.889 43.4883 108.91 42.9685 107.219 41.929C105.529 40.8895 104.216 39.4352 103.282 37.5661C102.347 35.6971 101.88 33.513 101.88 31.014C101.88 28.5044 102.347 26.3099 103.282 24.4304C104.216 22.5508 105.529 21.0913 107.219 20.0518C108.91 19.0122 110.889 18.4925 113.157 18.4925C115.425 18.4925 117.405 19.0122 119.095 20.0518C120.786 21.0913 122.098 22.5508 123.033 24.4304C123.967 26.3099 124.435 28.5044 124.435 31.014C124.435 33.513 123.967 35.6971 123.033 37.5661C122.098 39.4352 120.786 40.8895 119.095 41.929C117.405 42.9685 115.425 43.4883 113.157 43.4883ZM113.173 39.5349C114.643 39.5349 115.861 39.1464 116.827 38.3694C117.793 37.5924 118.507 36.5581 118.969 35.2666C119.442 33.9751 119.678 32.5523 119.678 30.9982C119.678 29.4547 119.442 28.0372 118.969 26.7457C118.507 25.4436 117.793 24.3989 116.827 23.6113C115.861 22.8238 114.643 22.4301 113.173 22.4301C111.693 22.4301 110.464 22.8238 109.488 23.6113C108.521 24.3989 107.802 25.4436 107.33 26.7457C106.868 28.0372 106.637 29.4547 106.637 30.9982C106.637 32.5523 106.868 33.9751 107.33 35.2666C107.802 36.5581 108.521 37.5924 109.488 38.3694C110.464 39.1464 111.693 39.5349 113.173 39.5349ZM142.315 18.8075V22.5876H129.1V18.8075H142.315ZM132.644 13.0114H137.353V35.8966C137.353 36.8101 137.49 37.4979 137.763 37.9599C138.036 38.4114 138.388 38.7212 138.818 38.8892C139.259 39.0467 139.737 39.1254 140.252 39.1254C140.63 39.1254 140.96 39.0992 141.244 39.0467C141.527 38.9942 141.748 38.9522 141.905 38.9207L142.756 42.811C142.483 42.916 142.094 43.021 141.59 43.126C141.086 43.2415 140.456 43.3045 139.7 43.315C138.461 43.336 137.306 43.1155 136.235 42.6535C135.164 42.1915 134.298 41.4775 133.636 40.5114C132.975 39.5454 132.644 38.3327 132.644 36.8731V13.0114ZM159.022 43.4883C156.638 43.4883 154.585 42.979 152.863 41.9605C151.152 40.9315 149.829 39.4877 148.894 37.6291C147.97 35.7601 147.508 33.5708 147.508 31.0612C147.508 28.5832 147.97 26.3991 148.894 24.5091C149.829 22.6191 151.131 21.1438 152.8 20.0833C154.48 19.0227 156.444 18.4925 158.691 18.4925C160.056 18.4925 161.379 18.7182 162.66 19.1697C163.941 19.6213 165.091 20.33 166.109 21.296C167.128 22.2621 167.931 23.5168 168.519 25.0604C169.107 26.5934 169.401 28.4572 169.401 30.6517V32.3213H150.17V28.7932H164.786C164.786 27.5542 164.534 26.4569 164.03 25.5014C163.526 24.5354 162.818 23.7741 161.904 23.2176C161.001 22.6611 159.94 22.3828 158.722 22.3828C157.399 22.3828 156.244 22.7083 155.257 23.3593C154.281 23.9998 153.525 24.8399 152.989 25.8794C152.464 26.9084 152.202 28.0267 152.202 29.2342V31.9905C152.202 33.6076 152.485 34.9831 153.052 36.1171C153.63 37.2511 154.433 38.1174 155.462 38.7159C156.491 39.3039 157.693 39.5979 159.069 39.5979C159.961 39.5979 160.775 39.4719 161.51 39.2199C162.245 38.9574 162.881 38.5689 163.416 38.0544C163.952 37.5399 164.361 36.9046 164.645 36.1486L169.102 36.9519C168.745 38.2644 168.104 39.4142 167.18 40.4012C166.267 41.3777 165.117 42.139 163.731 42.685C162.355 43.2205 160.786 43.4883 159.022 43.4883ZM194.086 24.7139L189.817 25.4699C189.639 24.9239 189.355 24.4041 188.967 23.9106C188.589 23.4171 188.074 23.0128 187.423 22.6978C186.772 22.3828 185.958 22.2253 184.982 22.2253C183.648 22.2253 182.535 22.5246 181.643 23.1231C180.75 23.7111 180.304 24.4724 180.304 25.4069C180.304 26.2154 180.603 26.8664 181.202 27.3599C181.8 27.8534 182.766 28.2577 184.1 28.5727L187.943 29.4547C190.169 29.9692 191.828 30.762 192.92 31.833C194.012 32.904 194.558 34.2953 194.558 36.0069C194.558 37.4559 194.138 38.7474 193.298 39.8814C192.469 41.005 191.308 41.887 189.817 42.5275C188.337 43.168 186.62 43.4883 184.667 43.4883C181.958 43.4883 179.747 42.9107 178.036 41.7557C176.324 40.5902 175.274 38.9364 174.886 36.7944L179.438 36.1014C179.721 37.2879 180.304 38.1856 181.186 38.7947C182.068 39.3932 183.218 39.6924 184.635 39.6924C186.179 39.6924 187.413 39.3722 188.337 38.7317C189.261 38.0806 189.723 37.2879 189.723 36.3534C189.723 35.5973 189.439 34.9621 188.872 34.4476C188.316 33.9331 187.46 33.5445 186.305 33.282L182.21 32.3843C179.952 31.8698 178.283 31.0507 177.201 29.9272C176.13 28.8037 175.595 27.3809 175.595 25.6589C175.595 24.2309 175.994 22.9813 176.792 21.9103C177.59 20.8393 178.692 20.0045 180.099 19.406C181.506 18.797 183.118 18.4925 184.935 18.4925C187.549 18.4925 189.607 19.0595 191.109 20.1935C192.61 21.317 193.603 22.8238 194.086 24.7139ZM213.352 9.23128L202.957 47.8511H198.751L209.146 9.23128H213.352ZM240.749 32.0693L219.833 42.2125V37.3929L235.268 30.3682L235.111 30.636V29.9587L235.268 30.2422L219.833 23.2018V18.398L240.749 28.5412V32.0693Z" fill="#334155"/>
</svg>
